<mxfile host="Electron" agent="Mozilla/5.0 (X11; Linux x86_64) AppleWebKit/537.36 (KHTML, like Gecko) draw.io/24.7.17 Chrome/128.0.6613.36 Electron/32.0.1 Safari/537.36" version="24.7.17">
  <diagram name="Página-1" id="I79DG9nxFcM3Ktv46hhQ">
    <mxGraphModel dx="2790" dy="1002" grid="0" gridSize="10" guides="0" tooltips="1" connect="1" arrows="1" fold="1" page="0" pageScale="1" pageWidth="827" pageHeight="1169" math="0" shadow="0">
      <root>
        <mxCell id="0" />
        <mxCell id="1" parent="0" />
        <mxCell id="G_4jB5h9tyF6BoxG4SK3-19" style="edgeStyle=none;shape=connector;curved=0;rounded=1;orthogonalLoop=1;jettySize=auto;html=1;exitX=0.5;exitY=1;exitDx=0;exitDy=0;entryX=0.5;entryY=0;entryDx=0;entryDy=0;strokeColor=default;align=center;verticalAlign=middle;fontFamily=Helvetica;fontSize=12;fontColor=default;labelBackgroundColor=default;startSize=8;endArrow=classic;endSize=8;" parent="1" edge="1" target="G_4jB5h9tyF6BoxG4SK3-18" source="G_4jB5h9tyF6BoxG4SK3-15">
          <mxGeometry relative="1" as="geometry">
            <mxPoint x="-265" y="723.5" as="sourcePoint" />
            <mxPoint x="-128.00000000000955" y="722.5" as="targetPoint" />
          </mxGeometry>
        </mxCell>
        <mxCell id="q8ojRqLTtz0W8uFgenrz-3" value="[recebe requisição]" style="edgeLabel;html=1;align=center;verticalAlign=middle;resizable=0;points=[];fontSize=12;fontFamily=Helvetica;fontColor=default;labelBackgroundColor=default;" parent="G_4jB5h9tyF6BoxG4SK3-19" vertex="1" connectable="0">
          <mxGeometry x="-0.1893" y="2" relative="1" as="geometry">
            <mxPoint x="-2" y="-2" as="offset" />
          </mxGeometry>
        </mxCell>
        <mxCell id="G_4jB5h9tyF6BoxG4SK3-15" value="Usuario Criado" style="swimlane;whiteSpace=wrap;html=1;startSize=30;rounded=1;" parent="1" vertex="1">
          <mxGeometry x="-196" y="589" width="170" height="53" as="geometry" />
        </mxCell>
        <mxCell id="j5lY1KdBsQA8LZKXSyf9-4" style="edgeStyle=none;curved=0;rounded=1;orthogonalLoop=1;jettySize=auto;html=1;exitX=0.5;exitY=1;exitDx=0;exitDy=0;entryX=0;entryY=0.5;entryDx=0;entryDy=0;fontSize=12;startSize=8;endSize=8;" edge="1" parent="1" source="G_4jB5h9tyF6BoxG4SK3-18" target="tV29D7XiEOSRwRjeyNrB-37">
          <mxGeometry relative="1" as="geometry">
            <Array as="points">
              <mxPoint x="-111" y="814" />
            </Array>
          </mxGeometry>
        </mxCell>
        <mxCell id="j5lY1KdBsQA8LZKXSyf9-6" style="edgeStyle=none;shape=connector;curved=0;rounded=1;orthogonalLoop=1;jettySize=auto;html=1;exitX=1;exitY=0.5;exitDx=0;exitDy=0;entryX=0;entryY=0.5;entryDx=0;entryDy=0;strokeColor=default;align=center;verticalAlign=middle;fontFamily=Helvetica;fontSize=12;fontColor=default;labelBackgroundColor=default;startSize=8;endArrow=classic;endSize=8;" edge="1" parent="1" source="G_4jB5h9tyF6BoxG4SK3-18" target="tV29D7XiEOSRwRjeyNrB-5">
          <mxGeometry relative="1" as="geometry" />
        </mxCell>
        <mxCell id="j5lY1KdBsQA8LZKXSyf9-7" value="[recebe registro de dados biométricos]" style="edgeLabel;html=1;align=center;verticalAlign=middle;resizable=0;points=[];fontSize=12;fontFamily=Helvetica;fontColor=default;labelBackgroundColor=default;" vertex="1" connectable="0" parent="j5lY1KdBsQA8LZKXSyf9-6">
          <mxGeometry x="-0.1248" y="-1" relative="1" as="geometry">
            <mxPoint x="5" y="-10" as="offset" />
          </mxGeometry>
        </mxCell>
        <mxCell id="j5lY1KdBsQA8LZKXSyf9-13" style="edgeStyle=none;shape=connector;curved=0;rounded=1;orthogonalLoop=1;jettySize=auto;html=1;exitX=0.5;exitY=1;exitDx=0;exitDy=0;entryX=0;entryY=0.5;entryDx=0;entryDy=0;strokeColor=default;align=center;verticalAlign=middle;fontFamily=Helvetica;fontSize=12;fontColor=default;labelBackgroundColor=default;startSize=8;endArrow=classic;endSize=8;" edge="1" parent="1" source="G_4jB5h9tyF6BoxG4SK3-18" target="tV29D7XiEOSRwRjeyNrB-44">
          <mxGeometry relative="1" as="geometry">
            <Array as="points">
              <mxPoint x="-110" y="929" />
            </Array>
          </mxGeometry>
        </mxCell>
        <mxCell id="j5lY1KdBsQA8LZKXSyf9-15" style="edgeStyle=none;shape=connector;curved=0;rounded=1;orthogonalLoop=1;jettySize=auto;html=1;exitX=0.5;exitY=1;exitDx=0;exitDy=0;entryX=0;entryY=0.5;entryDx=0;entryDy=0;strokeColor=default;align=center;verticalAlign=middle;fontFamily=Helvetica;fontSize=12;fontColor=default;labelBackgroundColor=default;startSize=8;endArrow=classic;endSize=8;" edge="1" parent="1" source="G_4jB5h9tyF6BoxG4SK3-18" target="tV29D7XiEOSRwRjeyNrB-130">
          <mxGeometry relative="1" as="geometry">
            <Array as="points">
              <mxPoint x="-111" y="1045" />
            </Array>
          </mxGeometry>
        </mxCell>
        <mxCell id="j5lY1KdBsQA8LZKXSyf9-23" style="edgeStyle=none;shape=connector;curved=0;rounded=1;orthogonalLoop=1;jettySize=auto;html=1;exitX=0.5;exitY=1;exitDx=0;exitDy=0;entryX=0;entryY=0.5;entryDx=0;entryDy=0;strokeColor=default;align=center;verticalAlign=middle;fontFamily=Helvetica;fontSize=12;fontColor=default;labelBackgroundColor=default;startSize=8;endArrow=classic;endSize=8;" edge="1" parent="1" source="G_4jB5h9tyF6BoxG4SK3-18" target="tV29D7XiEOSRwRjeyNrB-94">
          <mxGeometry relative="1" as="geometry">
            <Array as="points">
              <mxPoint x="-111" y="1257" />
            </Array>
          </mxGeometry>
        </mxCell>
        <mxCell id="j5lY1KdBsQA8LZKXSyf9-29" style="edgeStyle=none;shape=connector;curved=0;rounded=1;orthogonalLoop=1;jettySize=auto;html=1;exitX=0.5;exitY=1;exitDx=0;exitDy=0;entryX=0;entryY=0.5;entryDx=0;entryDy=0;strokeColor=default;align=center;verticalAlign=middle;fontFamily=Helvetica;fontSize=12;fontColor=default;labelBackgroundColor=default;startSize=8;endArrow=classic;endSize=8;" edge="1" parent="1" source="G_4jB5h9tyF6BoxG4SK3-18" target="tV29D7XiEOSRwRjeyNrB-118">
          <mxGeometry relative="1" as="geometry">
            <Array as="points">
              <mxPoint x="-111" y="1368" />
            </Array>
          </mxGeometry>
        </mxCell>
        <mxCell id="j5lY1KdBsQA8LZKXSyf9-30" style="edgeStyle=none;shape=connector;curved=0;rounded=1;orthogonalLoop=1;jettySize=auto;html=1;exitX=0.5;exitY=1;exitDx=0;exitDy=0;strokeColor=default;align=center;verticalAlign=middle;fontFamily=Helvetica;fontSize=12;fontColor=default;labelBackgroundColor=default;startSize=8;endArrow=classic;endSize=8;entryX=0;entryY=0.5;entryDx=0;entryDy=0;" edge="1" parent="1" source="G_4jB5h9tyF6BoxG4SK3-18" target="tV29D7XiEOSRwRjeyNrB-153">
          <mxGeometry relative="1" as="geometry">
            <Array as="points">
              <mxPoint x="-111" y="1476" />
            </Array>
          </mxGeometry>
        </mxCell>
        <mxCell id="j5lY1KdBsQA8LZKXSyf9-32" style="edgeStyle=none;shape=connector;curved=0;rounded=1;orthogonalLoop=1;jettySize=auto;html=1;exitX=0.5;exitY=1;exitDx=0;exitDy=0;entryX=0;entryY=0.5;entryDx=0;entryDy=0;strokeColor=default;align=center;verticalAlign=middle;fontFamily=Helvetica;fontSize=12;fontColor=default;labelBackgroundColor=default;startSize=8;endArrow=classic;endSize=8;" edge="1" parent="1" source="G_4jB5h9tyF6BoxG4SK3-18" target="tV29D7XiEOSRwRjeyNrB-165">
          <mxGeometry relative="1" as="geometry">
            <Array as="points">
              <mxPoint x="-111" y="1600" />
            </Array>
          </mxGeometry>
        </mxCell>
        <mxCell id="G_4jB5h9tyF6BoxG4SK3-18" value="" style="ellipse;whiteSpace=wrap;html=1;aspect=fixed;fontFamily=Helvetica;fontSize=12;fontColor=default;labelBackgroundColor=default;strokeWidth=2;" parent="1" vertex="1">
          <mxGeometry x="-129" y="705" width="35" height="35" as="geometry" />
        </mxCell>
        <mxCell id="G_4jB5h9tyF6BoxG4SK3-28" value="Classe Usuario" style="rounded=0;whiteSpace=wrap;html=1;fontFamily=Helvetica;fontSize=12;fontColor=default;labelBackgroundColor=default;strokeWidth=2;" parent="1" vertex="1">
          <mxGeometry x="-203" y="414" width="173" height="60" as="geometry" />
        </mxCell>
        <mxCell id="q8ojRqLTtz0W8uFgenrz-1" value="" style="ellipse;html=1;shape=startState;fillColor=#000000;strokeColor=#ff0000;fontFamily=Helvetica;fontSize=12;fontColor=default;labelBackgroundColor=default;" parent="1" vertex="1">
          <mxGeometry x="-127" y="498" width="30" height="30" as="geometry" />
        </mxCell>
        <mxCell id="q8ojRqLTtz0W8uFgenrz-2" value="" style="edgeStyle=orthogonalEdgeStyle;html=1;verticalAlign=bottom;endArrow=open;endSize=8;strokeColor=#ff0000;rounded=1;align=center;fontFamily=Helvetica;fontSize=12;fontColor=default;labelBackgroundColor=default;curved=0;" parent="1" source="q8ojRqLTtz0W8uFgenrz-1" edge="1">
          <mxGeometry relative="1" as="geometry">
            <mxPoint x="-112" y="588" as="targetPoint" />
          </mxGeometry>
        </mxCell>
        <mxCell id="j5lY1KdBsQA8LZKXSyf9-5" style="edgeStyle=none;shape=connector;curved=0;rounded=1;orthogonalLoop=1;jettySize=auto;html=1;exitX=1;exitY=0.5;exitDx=0;exitDy=0;entryX=0;entryY=0.5;entryDx=0;entryDy=0;strokeColor=default;align=center;verticalAlign=middle;fontFamily=Helvetica;fontSize=12;fontColor=default;labelBackgroundColor=default;startSize=8;endArrow=classic;endSize=8;" edge="1" parent="1" source="tV29D7XiEOSRwRjeyNrB-5" target="j5lY1KdBsQA8LZKXSyf9-2">
          <mxGeometry relative="1" as="geometry" />
        </mxCell>
        <mxCell id="tV29D7XiEOSRwRjeyNrB-5" value="Registrando dados biometricos" style="swimlane;whiteSpace=wrap;html=1;startSize=30;rounded=1;" parent="1" vertex="1">
          <mxGeometry x="238" y="689" width="170" height="65" as="geometry" />
        </mxCell>
        <mxCell id="tV29D7XiEOSRwRjeyNrB-6" value="registraBiometria()" style="text;html=1;align=center;verticalAlign=middle;resizable=0;points=[];autosize=1;strokeColor=none;fillColor=none;" parent="tV29D7XiEOSRwRjeyNrB-5" vertex="1">
          <mxGeometry x="24" y="32" width="117" height="26" as="geometry" />
        </mxCell>
        <mxCell id="j5lY1KdBsQA8LZKXSyf9-9" style="edgeStyle=none;shape=connector;curved=0;rounded=1;orthogonalLoop=1;jettySize=auto;html=1;exitX=1;exitY=0.5;exitDx=0;exitDy=0;entryX=0;entryY=0.5;entryDx=0;entryDy=0;strokeColor=default;align=center;verticalAlign=middle;fontFamily=Helvetica;fontSize=12;fontColor=default;labelBackgroundColor=default;startSize=8;endArrow=classic;endSize=8;" edge="1" parent="1" source="tV29D7XiEOSRwRjeyNrB-37" target="j5lY1KdBsQA8LZKXSyf9-3">
          <mxGeometry relative="1" as="geometry" />
        </mxCell>
        <mxCell id="tV29D7XiEOSRwRjeyNrB-37" value="Registrando alteração de senha" style="swimlane;whiteSpace=wrap;html=1;startSize=30;rounded=1;" parent="1" vertex="1">
          <mxGeometry x="237" y="780" width="170" height="65" as="geometry" />
        </mxCell>
        <mxCell id="tV29D7XiEOSRwRjeyNrB-38" value="setSenha()" style="text;html=1;align=center;verticalAlign=middle;resizable=0;points=[];autosize=1;strokeColor=none;fillColor=none;" parent="tV29D7XiEOSRwRjeyNrB-37" vertex="1">
          <mxGeometry x="44" y="32" width="77" height="26" as="geometry" />
        </mxCell>
        <mxCell id="j5lY1KdBsQA8LZKXSyf9-14" style="edgeStyle=none;shape=connector;curved=0;rounded=1;orthogonalLoop=1;jettySize=auto;html=1;exitX=1;exitY=0.5;exitDx=0;exitDy=0;entryX=0;entryY=0.5;entryDx=0;entryDy=0;strokeColor=default;align=center;verticalAlign=middle;fontFamily=Helvetica;fontSize=12;fontColor=default;labelBackgroundColor=default;startSize=8;endArrow=classic;endSize=8;" edge="1" parent="1" source="tV29D7XiEOSRwRjeyNrB-44" target="j5lY1KdBsQA8LZKXSyf9-8">
          <mxGeometry relative="1" as="geometry" />
        </mxCell>
        <mxCell id="tV29D7XiEOSRwRjeyNrB-44" value="Registrando modificação de informações de usuário" style="swimlane;whiteSpace=wrap;html=1;startSize=30;rounded=1;" parent="1" vertex="1">
          <mxGeometry x="235" y="889" width="175" height="80" as="geometry" />
        </mxCell>
        <mxCell id="tV29D7XiEOSRwRjeyNrB-45" value="setDadosPessoais(dados)" style="text;html=1;align=center;verticalAlign=middle;resizable=0;points=[];autosize=1;strokeColor=none;fillColor=none;" parent="tV29D7XiEOSRwRjeyNrB-44" vertex="1">
          <mxGeometry x="9" y="40" width="158" height="26" as="geometry" />
        </mxCell>
        <mxCell id="tV29D7XiEOSRwRjeyNrB-48" value="[recebe modificação de&amp;nbsp;&lt;div&gt;informações de cadastro]&lt;/div&gt;" style="edgeLabel;html=1;align=center;verticalAlign=middle;resizable=0;points=[];" parent="1" vertex="1" connectable="0">
          <mxGeometry x="37.99526940186094" y="912.0005882352941" as="geometry" />
        </mxCell>
        <mxCell id="tV29D7XiEOSRwRjeyNrB-103" style="edgeStyle=orthogonalEdgeStyle;rounded=0;orthogonalLoop=1;jettySize=auto;html=1;entryX=0;entryY=0.5;entryDx=0;entryDy=0;" parent="1" target="tV29D7XiEOSRwRjeyNrB-62" edge="1">
          <mxGeometry relative="1" as="geometry">
            <mxPoint x="535" y="1043.5" as="sourcePoint" />
          </mxGeometry>
        </mxCell>
        <mxCell id="tV29D7XiEOSRwRjeyNrB-53" value="Verificando o saldo disponível do usuário" style="swimlane;whiteSpace=wrap;html=1;startSize=30;rounded=1;" parent="1" vertex="1">
          <mxGeometry x="365" y="1013" width="170" height="65" as="geometry" />
        </mxCell>
        <mxCell id="tV29D7XiEOSRwRjeyNrB-54" value="verificarSaldoDisponivel()" style="text;html=1;align=center;verticalAlign=middle;resizable=0;points=[];autosize=1;strokeColor=none;fillColor=none;" parent="tV29D7XiEOSRwRjeyNrB-53" vertex="1">
          <mxGeometry x="6" y="32" width="154" height="26" as="geometry" />
        </mxCell>
        <mxCell id="tV29D7XiEOSRwRjeyNrB-57" value="[execução de ordem]" style="text;html=1;align=center;verticalAlign=middle;resizable=0;points=[];autosize=1;strokeColor=none;fillColor=none;" parent="1" vertex="1">
          <mxGeometry x="-25" y="1022" width="130" height="26" as="geometry" />
        </mxCell>
        <mxCell id="tV29D7XiEOSRwRjeyNrB-104" style="edgeStyle=orthogonalEdgeStyle;rounded=0;orthogonalLoop=1;jettySize=auto;html=1;entryX=0;entryY=0.5;entryDx=0;entryDy=0;" parent="1" source="tV29D7XiEOSRwRjeyNrB-62" target="tV29D7XiEOSRwRjeyNrB-72" edge="1">
          <mxGeometry relative="1" as="geometry" />
        </mxCell>
        <mxCell id="tV29D7XiEOSRwRjeyNrB-62" value="Debitando saldo do usuário" style="swimlane;whiteSpace=wrap;html=1;startSize=30;rounded=1;" parent="1" vertex="1">
          <mxGeometry x="654" y="1011" width="170" height="65" as="geometry" />
        </mxCell>
        <mxCell id="tV29D7XiEOSRwRjeyNrB-63" value="debitarSaldo()" style="text;html=1;align=center;verticalAlign=middle;resizable=0;points=[];autosize=1;strokeColor=none;fillColor=none;" parent="tV29D7XiEOSRwRjeyNrB-62" vertex="1">
          <mxGeometry x="37" y="32" width="93" height="26" as="geometry" />
        </mxCell>
        <mxCell id="tV29D7XiEOSRwRjeyNrB-72" value="Adicionando nova ação" style="swimlane;whiteSpace=wrap;html=1;startSize=30;rounded=1;" parent="1" vertex="1">
          <mxGeometry x="980" y="1011" width="170" height="65" as="geometry" />
        </mxCell>
        <mxCell id="tV29D7XiEOSRwRjeyNrB-73" value="adicionarAcao(novaAcao)" style="text;html=1;align=center;verticalAlign=middle;resizable=0;points=[];autosize=1;strokeColor=none;fillColor=none;" parent="tV29D7XiEOSRwRjeyNrB-72" vertex="1">
          <mxGeometry x="6" y="32" width="155" height="26" as="geometry" />
        </mxCell>
        <mxCell id="tV29D7XiEOSRwRjeyNrB-75" value="[saldo debitado]" style="text;html=1;align=center;verticalAlign=middle;resizable=0;points=[];autosize=1;strokeColor=none;fillColor=none;" parent="1" vertex="1">
          <mxGeometry x="849" y="1020" width="103" height="26" as="geometry" />
        </mxCell>
        <mxCell id="j5lY1KdBsQA8LZKXSyf9-19" style="edgeStyle=none;shape=connector;curved=0;rounded=1;orthogonalLoop=1;jettySize=auto;html=1;exitX=1;exitY=0.5;exitDx=0;exitDy=0;entryX=0;entryY=0.5;entryDx=0;entryDy=0;strokeColor=default;align=center;verticalAlign=middle;fontFamily=Helvetica;fontSize=12;fontColor=default;labelBackgroundColor=default;startSize=8;endArrow=classic;endSize=8;" edge="1" parent="1" source="tV29D7XiEOSRwRjeyNrB-84" target="j5lY1KdBsQA8LZKXSyf9-18">
          <mxGeometry relative="1" as="geometry" />
        </mxCell>
        <mxCell id="tV29D7XiEOSRwRjeyNrB-84" value="Adicionando transação de compra" style="swimlane;whiteSpace=wrap;html=1;startSize=30;rounded=1;" parent="1" vertex="1">
          <mxGeometry x="1303" y="1011" width="170" height="65" as="geometry" />
        </mxCell>
        <mxCell id="tV29D7XiEOSRwRjeyNrB-85" value="adicionaTransacao(compra)" style="text;html=1;align=center;verticalAlign=middle;resizable=0;points=[];autosize=1;strokeColor=none;fillColor=none;" parent="tV29D7XiEOSRwRjeyNrB-84" vertex="1">
          <mxGeometry y="32" width="167" height="26" as="geometry" />
        </mxCell>
        <mxCell id="tV29D7XiEOSRwRjeyNrB-86" value="[ação adicionada]" style="text;html=1;align=center;verticalAlign=middle;resizable=0;points=[];autosize=1;strokeColor=none;fillColor=none;" parent="1" vertex="1">
          <mxGeometry x="1169" y="1018" width="112" height="26" as="geometry" />
        </mxCell>
        <mxCell id="tV29D7XiEOSRwRjeyNrB-112" style="edgeStyle=orthogonalEdgeStyle;rounded=0;orthogonalLoop=1;jettySize=auto;html=1;entryX=0;entryY=0.5;entryDx=0;entryDy=0;" parent="1" source="tV29D7XiEOSRwRjeyNrB-94" target="tV29D7XiEOSRwRjeyNrB-110" edge="1">
          <mxGeometry relative="1" as="geometry" />
        </mxCell>
        <mxCell id="tV29D7XiEOSRwRjeyNrB-94" value="Adicionando notificação" style="swimlane;whiteSpace=wrap;html=1;startSize=30;rounded=1;" parent="1" vertex="1">
          <mxGeometry x="231.82" y="1224" width="170" height="65" as="geometry" />
        </mxCell>
        <mxCell id="tV29D7XiEOSRwRjeyNrB-95" value="adicionarNotificacao()" style="text;html=1;align=center;verticalAlign=middle;resizable=0;points=[];autosize=1;strokeColor=none;fillColor=none;" parent="tV29D7XiEOSRwRjeyNrB-94" vertex="1">
          <mxGeometry x="17" y="32" width="134" height="26" as="geometry" />
        </mxCell>
        <mxCell id="tV29D7XiEOSRwRjeyNrB-102" value="[se saldo diponivel]" style="text;html=1;align=center;verticalAlign=middle;resizable=0;points=[];autosize=1;strokeColor=none;fillColor=none;" parent="1" vertex="1">
          <mxGeometry x="532" y="1021" width="120" height="26" as="geometry" />
        </mxCell>
        <mxCell id="tV29D7XiEOSRwRjeyNrB-107" value="[adição de notificação]" style="text;html=1;align=center;verticalAlign=middle;resizable=0;points=[];autosize=1;strokeColor=none;fillColor=none;" parent="1" vertex="1">
          <mxGeometry x="-22" y="1232" width="137" height="26" as="geometry" />
        </mxCell>
        <mxCell id="j5lY1KdBsQA8LZKXSyf9-27" style="edgeStyle=none;shape=connector;curved=0;rounded=1;orthogonalLoop=1;jettySize=auto;html=1;exitX=1;exitY=0.5;exitDx=0;exitDy=0;entryX=0;entryY=0.5;entryDx=0;entryDy=0;strokeColor=default;align=center;verticalAlign=middle;fontFamily=Helvetica;fontSize=12;fontColor=default;labelBackgroundColor=default;startSize=8;endArrow=classic;endSize=8;" edge="1" parent="1" source="tV29D7XiEOSRwRjeyNrB-110" target="j5lY1KdBsQA8LZKXSyf9-26">
          <mxGeometry relative="1" as="geometry" />
        </mxCell>
        <mxCell id="tV29D7XiEOSRwRjeyNrB-110" value="Emitindo notificação" style="swimlane;whiteSpace=wrap;html=1;startSize=30;rounded=1;" parent="1" vertex="1">
          <mxGeometry x="572.82" y="1223" width="170" height="65" as="geometry" />
        </mxCell>
        <mxCell id="tV29D7XiEOSRwRjeyNrB-111" value="emiteNotificacao()" style="text;html=1;align=center;verticalAlign=middle;resizable=0;points=[];autosize=1;strokeColor=none;fillColor=none;" parent="tV29D7XiEOSRwRjeyNrB-110" vertex="1">
          <mxGeometry x="26" y="32" width="115" height="26" as="geometry" />
        </mxCell>
        <mxCell id="tV29D7XiEOSRwRjeyNrB-113" value="[se notificação adicionada]" style="text;html=1;align=center;verticalAlign=middle;resizable=0;points=[];autosize=1;strokeColor=none;fillColor=none;" parent="1" vertex="1">
          <mxGeometry x="407" y="1234" width="159" height="26" as="geometry" />
        </mxCell>
        <mxCell id="j5lY1KdBsQA8LZKXSyf9-24" style="edgeStyle=none;shape=connector;curved=0;rounded=1;orthogonalLoop=1;jettySize=auto;html=1;exitX=1;exitY=0.5;exitDx=0;exitDy=0;entryX=0;entryY=0.5;entryDx=0;entryDy=0;strokeColor=default;align=center;verticalAlign=middle;fontFamily=Helvetica;fontSize=12;fontColor=default;labelBackgroundColor=default;startSize=8;endArrow=classic;endSize=8;" edge="1" parent="1" source="tV29D7XiEOSRwRjeyNrB-118" target="tV29D7XiEOSRwRjeyNrB-122">
          <mxGeometry relative="1" as="geometry" />
        </mxCell>
        <mxCell id="tV29D7XiEOSRwRjeyNrB-118" value="Buscando tipo de Ordem" style="swimlane;whiteSpace=wrap;html=1;startSize=30;rounded=1;" parent="1" vertex="1">
          <mxGeometry x="228.82" y="1335" width="170" height="66" as="geometry" />
        </mxCell>
        <mxCell id="tV29D7XiEOSRwRjeyNrB-119" value="getTipoOrdem()" style="text;html=1;align=center;verticalAlign=middle;resizable=0;points=[];autosize=1;strokeColor=none;fillColor=none;" parent="tV29D7XiEOSRwRjeyNrB-118" vertex="1">
          <mxGeometry x="34" y="33" width="102" height="26" as="geometry" />
        </mxCell>
        <mxCell id="tV29D7XiEOSRwRjeyNrB-121" value="[consulta de histórico]" style="text;html=1;align=center;verticalAlign=middle;resizable=0;points=[];autosize=1;strokeColor=none;fillColor=none;" parent="1" vertex="1">
          <mxGeometry x="-17" y="1345" width="134" height="26" as="geometry" />
        </mxCell>
        <mxCell id="tV29D7XiEOSRwRjeyNrB-129" style="edgeStyle=orthogonalEdgeStyle;rounded=0;orthogonalLoop=1;jettySize=auto;html=1;entryX=0;entryY=0.5;entryDx=0;entryDy=0;" parent="1" source="tV29D7XiEOSRwRjeyNrB-122" edge="1">
          <mxGeometry relative="1" as="geometry">
            <mxPoint x="776.8200000000065" y="1368" as="targetPoint" />
          </mxGeometry>
        </mxCell>
        <mxCell id="tV29D7XiEOSRwRjeyNrB-122" value="Filtrando tipo de ordem" style="swimlane;whiteSpace=wrap;html=1;startSize=30;rounded=1;" parent="1" vertex="1">
          <mxGeometry x="555.82" y="1335" width="170" height="66" as="geometry" />
        </mxCell>
        <mxCell id="tV29D7XiEOSRwRjeyNrB-123" value="filtrarPorTipo(compra) ||&amp;nbsp;&lt;div&gt;filtrarPorTipo(venda)&lt;/div&gt;" style="text;html=1;align=center;verticalAlign=middle;resizable=0;points=[];autosize=1;strokeColor=none;fillColor=none;" parent="tV29D7XiEOSRwRjeyNrB-122" vertex="1">
          <mxGeometry x="10" y="25" width="147" height="41" as="geometry" />
        </mxCell>
        <mxCell id="tV29D7XiEOSRwRjeyNrB-125" value="[busca concluída]" style="text;html=1;align=center;verticalAlign=middle;resizable=0;points=[];autosize=1;strokeColor=none;fillColor=none;" parent="1" vertex="1">
          <mxGeometry x="416" y="1346" width="111" height="26" as="geometry" />
        </mxCell>
        <mxCell id="tV29D7XiEOSRwRjeyNrB-148" style="edgeStyle=orthogonalEdgeStyle;rounded=0;orthogonalLoop=1;jettySize=auto;html=1;entryX=0;entryY=0.5;entryDx=0;entryDy=0;exitX=0.5;exitY=1;exitDx=0;exitDy=0;" parent="1" source="tV29D7XiEOSRwRjeyNrB-130" target="tV29D7XiEOSRwRjeyNrB-132" edge="1">
          <mxGeometry relative="1" as="geometry" />
        </mxCell>
        <mxCell id="j5lY1KdBsQA8LZKXSyf9-16" style="edgeStyle=none;shape=connector;curved=0;rounded=1;orthogonalLoop=1;jettySize=auto;html=1;exitX=1;exitY=0.5;exitDx=0;exitDy=0;entryX=0;entryY=0.5;entryDx=0;entryDy=0;strokeColor=default;align=center;verticalAlign=middle;fontFamily=Helvetica;fontSize=12;fontColor=default;labelBackgroundColor=default;startSize=8;endArrow=classic;endSize=8;" edge="1" parent="1" source="tV29D7XiEOSRwRjeyNrB-130" target="tV29D7XiEOSRwRjeyNrB-53">
          <mxGeometry relative="1" as="geometry" />
        </mxCell>
        <mxCell id="tV29D7XiEOSRwRjeyNrB-130" value="Tipo de&amp;nbsp;&lt;div&gt;Ordem&lt;/div&gt;" style="rhombus;whiteSpace=wrap;html=1;" parent="1" vertex="1">
          <mxGeometry x="178" y="1016" width="80" height="57" as="geometry" />
        </mxCell>
        <mxCell id="tV29D7XiEOSRwRjeyNrB-131" style="edgeStyle=orthogonalEdgeStyle;rounded=0;orthogonalLoop=1;jettySize=auto;html=1;entryX=0;entryY=0.5;entryDx=0;entryDy=0;" parent="1" target="tV29D7XiEOSRwRjeyNrB-135" edge="1">
          <mxGeometry relative="1" as="geometry">
            <mxPoint x="533" y="1141.5" as="sourcePoint" />
          </mxGeometry>
        </mxCell>
        <mxCell id="tV29D7XiEOSRwRjeyNrB-132" value="Verificando a quantidade de ações disponível do usuário" style="swimlane;whiteSpace=wrap;html=1;startSize=30;rounded=1;" parent="1" vertex="1">
          <mxGeometry x="363" y="1111" width="176" height="65" as="geometry">
            <mxRectangle x="363" y="1111" width="336" height="30" as="alternateBounds" />
          </mxGeometry>
        </mxCell>
        <mxCell id="tV29D7XiEOSRwRjeyNrB-133" value="verificarQuantidadeDisponivel()" style="text;html=1;align=center;verticalAlign=middle;resizable=0;points=[];autosize=1;strokeColor=none;fillColor=none;" parent="tV29D7XiEOSRwRjeyNrB-132" vertex="1">
          <mxGeometry x="-4" y="32" width="185" height="26" as="geometry" />
        </mxCell>
        <mxCell id="tV29D7XiEOSRwRjeyNrB-134" style="edgeStyle=orthogonalEdgeStyle;rounded=0;orthogonalLoop=1;jettySize=auto;html=1;entryX=0;entryY=0.5;entryDx=0;entryDy=0;" parent="1" source="tV29D7XiEOSRwRjeyNrB-135" target="tV29D7XiEOSRwRjeyNrB-137" edge="1">
          <mxGeometry relative="1" as="geometry" />
        </mxCell>
        <mxCell id="tV29D7XiEOSRwRjeyNrB-135" value="Creditando saldo para o usuário" style="swimlane;whiteSpace=wrap;html=1;startSize=30;rounded=1;" parent="1" vertex="1">
          <mxGeometry x="652" y="1109" width="170" height="65" as="geometry" />
        </mxCell>
        <mxCell id="tV29D7XiEOSRwRjeyNrB-136" value="creditarSaldo()" style="text;html=1;align=center;verticalAlign=middle;resizable=0;points=[];autosize=1;strokeColor=none;fillColor=none;" parent="tV29D7XiEOSRwRjeyNrB-135" vertex="1">
          <mxGeometry x="35" y="32" width="97" height="26" as="geometry" />
        </mxCell>
        <mxCell id="j5lY1KdBsQA8LZKXSyf9-20" style="edgeStyle=none;shape=connector;curved=0;rounded=1;orthogonalLoop=1;jettySize=auto;html=1;exitX=1;exitY=0.5;exitDx=0;exitDy=0;entryX=0;entryY=0.5;entryDx=0;entryDy=0;strokeColor=default;align=center;verticalAlign=middle;fontFamily=Helvetica;fontSize=12;fontColor=default;labelBackgroundColor=default;startSize=8;endArrow=classic;endSize=8;" edge="1" parent="1" source="tV29D7XiEOSRwRjeyNrB-137" target="tV29D7XiEOSRwRjeyNrB-141">
          <mxGeometry relative="1" as="geometry" />
        </mxCell>
        <mxCell id="tV29D7XiEOSRwRjeyNrB-137" value="Removendo ação" style="swimlane;whiteSpace=wrap;html=1;startSize=30;rounded=1;" parent="1" vertex="1">
          <mxGeometry x="978" y="1109" width="170" height="65" as="geometry" />
        </mxCell>
        <mxCell id="tV29D7XiEOSRwRjeyNrB-138" value="removerAcao(acao)" style="text;html=1;align=center;verticalAlign=middle;resizable=0;points=[];autosize=1;strokeColor=none;fillColor=none;" parent="tV29D7XiEOSRwRjeyNrB-137" vertex="1">
          <mxGeometry x="22" y="32" width="123" height="26" as="geometry" />
        </mxCell>
        <mxCell id="tV29D7XiEOSRwRjeyNrB-139" value="[saldo creditado]" style="text;html=1;align=center;verticalAlign=middle;resizable=0;points=[];autosize=1;strokeColor=none;fillColor=none;" parent="1" vertex="1">
          <mxGeometry x="844" y="1120" width="106" height="26" as="geometry" />
        </mxCell>
        <mxCell id="j5lY1KdBsQA8LZKXSyf9-22" style="edgeStyle=none;shape=connector;curved=0;rounded=1;orthogonalLoop=1;jettySize=auto;html=1;exitX=1;exitY=0.5;exitDx=0;exitDy=0;entryX=0;entryY=0.5;entryDx=0;entryDy=0;strokeColor=default;align=center;verticalAlign=middle;fontFamily=Helvetica;fontSize=12;fontColor=default;labelBackgroundColor=default;startSize=8;endArrow=classic;endSize=8;" edge="1" parent="1" source="tV29D7XiEOSRwRjeyNrB-141" target="j5lY1KdBsQA8LZKXSyf9-21">
          <mxGeometry relative="1" as="geometry" />
        </mxCell>
        <mxCell id="tV29D7XiEOSRwRjeyNrB-141" value="Adicionando transação de venda" style="swimlane;whiteSpace=wrap;html=1;startSize=30;rounded=1;" parent="1" vertex="1">
          <mxGeometry x="1301" y="1109" width="170" height="65" as="geometry" />
        </mxCell>
        <mxCell id="tV29D7XiEOSRwRjeyNrB-142" value="adicionaTransacao(venda)" style="text;html=1;align=center;verticalAlign=middle;resizable=0;points=[];autosize=1;strokeColor=none;fillColor=none;" parent="tV29D7XiEOSRwRjeyNrB-141" vertex="1">
          <mxGeometry x="4" y="32" width="160" height="26" as="geometry" />
        </mxCell>
        <mxCell id="tV29D7XiEOSRwRjeyNrB-143" value="[ação removida]" style="text;html=1;align=center;verticalAlign=middle;resizable=0;points=[];autosize=1;strokeColor=none;fillColor=none;" parent="1" vertex="1">
          <mxGeometry x="1172" y="1116" width="103" height="26" as="geometry" />
        </mxCell>
        <mxCell id="tV29D7XiEOSRwRjeyNrB-146" value="[se quantidade&lt;div&gt;disponível]&lt;/div&gt;" style="text;html=1;align=center;verticalAlign=middle;resizable=0;points=[];autosize=1;strokeColor=none;fillColor=none;" parent="1" vertex="1">
          <mxGeometry x="545" y="1101" width="97" height="41" as="geometry" />
        </mxCell>
        <mxCell id="tV29D7XiEOSRwRjeyNrB-149" value="OrdemCompra" style="text;html=1;align=center;verticalAlign=middle;resizable=0;points=[];autosize=1;strokeColor=none;fillColor=none;" parent="1" vertex="1">
          <mxGeometry x="255" y="1022" width="97" height="26" as="geometry" />
        </mxCell>
        <mxCell id="tV29D7XiEOSRwRjeyNrB-150" value="OrdemVenda" style="text;html=1;align=center;verticalAlign=middle;resizable=0;points=[];autosize=1;strokeColor=none;fillColor=none;" parent="1" vertex="1">
          <mxGeometry x="239" y="1122" width="89" height="26" as="geometry" />
        </mxCell>
        <mxCell id="tV29D7XiEOSRwRjeyNrB-160" style="edgeStyle=orthogonalEdgeStyle;rounded=0;orthogonalLoop=1;jettySize=auto;html=1;entryX=0;entryY=0.5;entryDx=0;entryDy=0;" parent="1" source="tV29D7XiEOSRwRjeyNrB-153" edge="1">
          <mxGeometry relative="1" as="geometry">
            <mxPoint x="482" y="1476" as="targetPoint" />
          </mxGeometry>
        </mxCell>
        <mxCell id="tV29D7XiEOSRwRjeyNrB-153" value="Sincronizando a carteira de ações" style="swimlane;whiteSpace=wrap;html=1;startSize=30;rounded=1;" parent="1" vertex="1">
          <mxGeometry x="228" y="1443" width="170" height="66" as="geometry" />
        </mxCell>
        <mxCell id="tV29D7XiEOSRwRjeyNrB-154" value="sincronizarCarteira()" style="text;html=1;align=center;verticalAlign=middle;resizable=0;points=[];autosize=1;strokeColor=none;fillColor=none;" parent="tV29D7XiEOSRwRjeyNrB-153" vertex="1">
          <mxGeometry x="22" y="33" width="127" height="26" as="geometry" />
        </mxCell>
        <mxCell id="tV29D7XiEOSRwRjeyNrB-156" value="[visualizar carteira de ações]" style="text;html=1;align=center;verticalAlign=middle;resizable=0;points=[];autosize=1;strokeColor=none;fillColor=none;" parent="1" vertex="1">
          <mxGeometry x="-35" y="1451" width="170" height="26" as="geometry" />
        </mxCell>
        <mxCell id="j5lY1KdBsQA8LZKXSyf9-33" style="edgeStyle=none;shape=connector;curved=0;rounded=1;orthogonalLoop=1;jettySize=auto;html=1;exitX=1;exitY=0.5;exitDx=0;exitDy=0;entryX=0;entryY=0.5;entryDx=0;entryDy=0;strokeColor=default;align=center;verticalAlign=middle;fontFamily=Helvetica;fontSize=12;fontColor=default;labelBackgroundColor=default;startSize=8;endArrow=classic;endSize=8;" edge="1" parent="1" source="tV29D7XiEOSRwRjeyNrB-165" target="tV29D7XiEOSRwRjeyNrB-174">
          <mxGeometry relative="1" as="geometry" />
        </mxCell>
        <mxCell id="tV29D7XiEOSRwRjeyNrB-165" value="&lt;span style=&quot;font-size: 11px;&quot;&gt;Salvando Preferências&lt;/span&gt;" style="swimlane;whiteSpace=wrap;html=1;startSize=30;rounded=1;" parent="1" vertex="1">
          <mxGeometry x="230" y="1565" width="170" height="70" as="geometry" />
        </mxCell>
        <mxCell id="tV29D7XiEOSRwRjeyNrB-166" value="salvarPreferencias()" style="text;html=1;align=center;verticalAlign=middle;resizable=0;points=[];autosize=1;strokeColor=none;fillColor=none;" parent="tV29D7XiEOSRwRjeyNrB-165" vertex="1">
          <mxGeometry x="23" y="33" width="125" height="26" as="geometry" />
        </mxCell>
        <mxCell id="tV29D7XiEOSRwRjeyNrB-168" value="[salvar configurações]" style="text;html=1;align=center;verticalAlign=middle;resizable=0;points=[];autosize=1;strokeColor=none;fillColor=none;" parent="1" vertex="1">
          <mxGeometry x="-3" y="1577" width="135" height="26" as="geometry" />
        </mxCell>
        <mxCell id="j5lY1KdBsQA8LZKXSyf9-35" style="edgeStyle=none;shape=connector;curved=0;rounded=1;orthogonalLoop=1;jettySize=auto;html=1;exitX=1;exitY=0.5;exitDx=0;exitDy=0;entryX=0;entryY=0.5;entryDx=0;entryDy=0;strokeColor=default;align=center;verticalAlign=middle;fontFamily=Helvetica;fontSize=12;fontColor=default;labelBackgroundColor=default;startSize=8;endArrow=classic;endSize=8;" edge="1" parent="1" source="tV29D7XiEOSRwRjeyNrB-174" target="j5lY1KdBsQA8LZKXSyf9-34">
          <mxGeometry relative="1" as="geometry" />
        </mxCell>
        <mxCell id="tV29D7XiEOSRwRjeyNrB-174" value="Atualizando alertas de cotação" style="swimlane;whiteSpace=wrap;html=1;startSize=30;rounded=1;" parent="1" vertex="1">
          <mxGeometry x="546" y="1567" width="170" height="66" as="geometry" />
        </mxCell>
        <mxCell id="tV29D7XiEOSRwRjeyNrB-175" value="atualizaAlertasDeCotacao()" style="text;html=1;align=center;verticalAlign=middle;resizable=0;points=[];autosize=1;strokeColor=none;fillColor=none;" parent="tV29D7XiEOSRwRjeyNrB-174" vertex="1">
          <mxGeometry x="3" y="33" width="165" height="26" as="geometry" />
        </mxCell>
        <mxCell id="tV29D7XiEOSRwRjeyNrB-177" value="[preferências salvas]" style="text;html=1;align=center;verticalAlign=middle;resizable=0;points=[];autosize=1;strokeColor=none;fillColor=none;" parent="1" vertex="1">
          <mxGeometry x="409" y="1573" width="128" height="26" as="geometry" />
        </mxCell>
        <mxCell id="j5lY1KdBsQA8LZKXSyf9-2" value="" style="ellipse;html=1;shape=endState;fillColor=#000000;strokeColor=#ff0000;" vertex="1" parent="1">
          <mxGeometry x="487" y="706" width="30" height="30" as="geometry" />
        </mxCell>
        <mxCell id="j5lY1KdBsQA8LZKXSyf9-3" value="" style="ellipse;html=1;shape=endState;fillColor=#000000;strokeColor=#ff0000;" vertex="1" parent="1">
          <mxGeometry x="487" y="798" width="30" height="30" as="geometry" />
        </mxCell>
        <mxCell id="j5lY1KdBsQA8LZKXSyf9-8" value="" style="ellipse;html=1;shape=endState;fillColor=#000000;strokeColor=#ff0000;fontFamily=Helvetica;fontSize=12;fontColor=default;labelBackgroundColor=default;" vertex="1" parent="1">
          <mxGeometry x="485" y="914" width="30" height="30" as="geometry" />
        </mxCell>
        <mxCell id="j5lY1KdBsQA8LZKXSyf9-10" value="[recebe registro de nova senha]" style="edgeLabel;html=1;align=center;verticalAlign=middle;resizable=0;points=[];fontSize=12;fontFamily=Helvetica;fontColor=default;labelBackgroundColor=default;" vertex="1" connectable="0" parent="1">
          <mxGeometry x="44.99568610878205" y="802.0022464455178" as="geometry" />
        </mxCell>
        <mxCell id="j5lY1KdBsQA8LZKXSyf9-17" style="edgeStyle=none;shape=connector;curved=0;rounded=1;orthogonalLoop=1;jettySize=auto;html=1;exitX=1;exitY=0.5;exitDx=0;exitDy=0;entryX=-0.006;entryY=0.017;entryDx=0;entryDy=0;entryPerimeter=0;strokeColor=default;align=center;verticalAlign=middle;fontFamily=Helvetica;fontSize=12;fontColor=default;labelBackgroundColor=default;startSize=8;endArrow=classic;endSize=8;" edge="1" parent="1" source="tV29D7XiEOSRwRjeyNrB-72" target="tV29D7XiEOSRwRjeyNrB-85">
          <mxGeometry relative="1" as="geometry" />
        </mxCell>
        <mxCell id="j5lY1KdBsQA8LZKXSyf9-18" value="" style="ellipse;html=1;shape=endState;fillColor=#000000;strokeColor=#ff0000;fontFamily=Helvetica;fontSize=12;fontColor=default;labelBackgroundColor=default;" vertex="1" parent="1">
          <mxGeometry x="1526" y="1028" width="30" height="30" as="geometry" />
        </mxCell>
        <mxCell id="j5lY1KdBsQA8LZKXSyf9-21" value="" style="ellipse;html=1;shape=endState;fillColor=#000000;strokeColor=#ff0000;fontFamily=Helvetica;fontSize=12;fontColor=default;labelBackgroundColor=default;" vertex="1" parent="1">
          <mxGeometry x="1525" y="1127" width="30" height="30" as="geometry" />
        </mxCell>
        <mxCell id="j5lY1KdBsQA8LZKXSyf9-26" value="" style="ellipse;html=1;shape=endState;fillColor=#000000;strokeColor=#ff0000;fontFamily=Helvetica;fontSize=12;fontColor=default;labelBackgroundColor=default;" vertex="1" parent="1">
          <mxGeometry x="802" y="1241" width="30" height="30" as="geometry" />
        </mxCell>
        <mxCell id="j5lY1KdBsQA8LZKXSyf9-28" value="" style="ellipse;html=1;shape=endState;fillColor=#000000;strokeColor=#ff0000;fontFamily=Helvetica;fontSize=12;fontColor=default;labelBackgroundColor=default;" vertex="1" parent="1">
          <mxGeometry x="777" y="1353" width="30" height="30" as="geometry" />
        </mxCell>
        <mxCell id="j5lY1KdBsQA8LZKXSyf9-31" value="" style="ellipse;html=1;shape=endState;fillColor=#000000;strokeColor=#ff0000;fontFamily=Helvetica;fontSize=12;fontColor=default;labelBackgroundColor=default;" vertex="1" parent="1">
          <mxGeometry x="482" y="1461" width="30" height="30" as="geometry" />
        </mxCell>
        <mxCell id="j5lY1KdBsQA8LZKXSyf9-34" value="" style="ellipse;html=1;shape=endState;fillColor=#000000;strokeColor=#ff0000;fontFamily=Helvetica;fontSize=12;fontColor=default;labelBackgroundColor=default;" vertex="1" parent="1">
          <mxGeometry x="778" y="1585" width="30" height="30" as="geometry" />
        </mxCell>
      </root>
    </mxGraphModel>
  </diagram>
</mxfile>
